<svg width="512" height="512" viewBox="0 0 512 512" fill="none" xmlns="http://www.w3.org/2000/svg">
<g clip-path="url(#clip0_9_44)">
<path d="M472.059 180.247C483.092 164.511 489.039 145.802 489.039 126.215C489.039 74.172 446.695 31.831 394.65 31.831C377.558 31.831 360.82 36.503 346.275 45.18C318.973 16.305 281.398 0 241.172 0C161.273 0 96.27 65.003 96.27 144.901C96.27 157.975 98.012 170.858 101.46 183.357C67.627 200.811 45.754 235.929 45.754 274.804C45.754 331.546 91.916 377.708 148.656 377.708C162.224 377.708 175.658 375.011 188.117 369.837C207.447 390.407 234.685 402.386 263.176 402.386C281.162 402.386 298.537 397.773 313.987 388.964C334.031 400.607 356.683 406.716 380.086 406.716C452.824 406.716 512 347.54 512 274.804C512 238.69 497.611 204.995 472.059 180.247ZM380.086 376.717C359.397 376.717 339.47 370.539 322.459 358.85C319.898 357.09 316.93 356.211 313.964 356.211C310.923 356.211 307.883 357.135 305.286 358.977C292.914 367.75 278.353 372.387 263.176 372.387C239.975 372.387 217.942 361.165 204.236 342.369C199.737 336.199 191.32 334.393 184.687 338.175C173.744 344.413 161.285 347.71 148.656 347.71C108.459 347.71 75.754 315.005 75.754 274.806C75.754 243.717 95.499 216.02 124.887 205.884C128.738 204.556 131.883 201.718 133.6 198.024C135.316 194.331 135.455 190.096 133.988 186.296C128.867 173.046 126.27 159.118 126.27 144.903C126.27 81.545 177.815 30 241.172 30C276.881 30 309.963 46.215 331.934 74.487C334.432 77.701 338.128 79.761 342.176 80.196C346.219 80.633 350.272 79.403 353.396 76.793C364.944 67.145 379.594 61.831 394.651 61.831C430.155 61.831 459.04 90.714 459.04 126.215C459.04 143.251 452.442 159.314 440.464 171.444C437.441 174.507 435.878 178.72 436.173 183.014C436.47 187.308 438.595 191.268 442.011 193.887C467.425 213.371 482.001 242.866 482.001 274.805C482 330.999 436.281 376.717 380.086 376.717Z" fill="#FF523D"/>
<path d="M15 512C23.2843 512 30 505.284 30 497C30 488.716 23.2843 482 15 482C6.71573 482 0 488.716 0 497C0 505.284 6.71573 512 15 512Z" fill="#FF523D"/>
<path d="M119.43 471.84C127.714 471.84 134.43 465.124 134.43 456.84C134.43 448.556 127.714 441.84 119.43 441.84C111.146 441.84 104.43 448.556 104.43 456.84C104.43 465.124 111.146 471.84 119.43 471.84Z" fill="#FF523D"/>
</g>
<defs>
<clipPath id="clip0_9_44">
<rect width="512" height="512" fill="white"/>
</clipPath>
</defs>
</svg>
